<?xml version="1.0" standalone="no"?>
<!DOCTYPE svg PUBLIC "-//W3C//DTD SVG 1.1//EN" "http://www.w3.org/Graphics/SVG/1.1/DTD/svg11.dtd" >
<svg xmlns="http://www.w3.org/2000/svg">
<metadata>Generated by IcoMoon</metadata>
<defs>
<font id="icomoon" horiz-adv-x="1024">
<font-face units-per-em="1024" ascent="960" descent="-64" />
<missing-glyph horiz-adv-x="1024" />
<glyph unicode="&#x20;" horiz-adv-x="512" d="" />
<glyph unicode="&#xe900;" glyph-name="arrow-right" d="M823.523 618.757l-10.537-13.239 173.459-149.142h-986.444v-17.022h986.444l-173.459-149.142 10.537-13.239 200.747 171.027z" />
<glyph unicode="&#xe901;" glyph-name="arrow-down" d="M511.999 156.146c-18.352 0-36.702 7.007-50.694 20.992l-440.297 440.301c-28.009 28.009-28.009 73.42 0 101.417 27.997 27.997 73.399 27.997 101.41 0l389.58-389.603 389.583 389.589c28.009 27.997 73.406 27.997 101.401 0 28.022-27.997 28.022-73.408 0-101.417l-440.29-440.301c-13.999-13.987-32.349-20.979-50.694-20.979z" />
<glyph unicode="&#xe902;" glyph-name="check-mark" d="M325.818 221.091l-244.364 244.364-81.455-81.455 325.818-325.818 698.182 698.182-81.455 81.455z" />
<glyph unicode="&#xe903;" glyph-name="double-arrow" d="M882.953 674.155h25.789l-59.842-60.136c-13.2-13.251-13.2-34.742 0-47.968 6.594-6.645 15.228-9.948 23.888-9.948 8.622 0 17.269 3.316 23.85 9.948l117.491 118.052c13.162 13.239 13.162 34.729 0 47.968l-117.491 118.065c-13.188 13.251-34.564 13.251-47.739 0-13.2-13.251-13.2-34.742 0-47.968l59.842-60.136h-25.789c-146.455 0-235.568-117.682-329.884-242.289-103.448-136.622-210.442-285.615-401.511-285.615h-117.809c-18.646 0.013-33.747-15.165-33.747-33.926s15.114-33.926 33.747-33.926h117.771c224.548 0 352.472 176.644 455.283 312.399 91.166 120.399 163.125 215.48 276.151 215.48zM1014.128 211.909l-117.491 118.039c-13.188 13.264-34.564 13.264-47.739 0-13.2-13.239-13.2-34.729 0-47.968l59.817-60.136h-25.776c-102.53 0-171.377 78.387-251.319 182.855l-44.218-53.503c82.557-106.458 166.9-197.216 295.538-197.216h25.776l-59.817-60.136c-13.2-13.251-13.2-34.717 0-47.968 6.594-6.645 15.228-9.948 23.888-9.948 8.622 0 17.269 3.316 23.85 9.948l117.491 118.039c6.313 6.377 9.872 14.999 9.872 23.99 0 9.004-3.558 17.639-9.872 24.003zM33.747 682.56h117.771c141.022 0 236.18-85.414 317.985-180.649l45.647 50.124c-88.526 100.808-200.52 198.377-363.619 198.377h-117.784c-18.634 0-33.747-15.203-33.747-33.939s15.114-33.913 33.747-33.913z" />
<glyph unicode="&#xe904;" glyph-name="eye" d="M638.089 448.027c0-69.639-56.454-126.093-126.093-126.093s-126.093 56.454-126.093 126.093c0 69.639 56.454 126.093 126.093 126.093s126.093-56.454 126.093-126.093zM1017.652 464c-9.235 9.771-228.921 240.075-505.716 240.075-276.765 0-496.42-230.304-505.631-240.075-8.4-8.973-8.4-22.966 0-31.896 9.247-9.771 228.909-240.178 505.631-240.178 276.796 0 496.548 230.407 505.716 240.178 8.461 8.93 8.461 22.996 0 31.896zM511.997 253.098c-107.452 0-194.868 87.434-194.868 194.972 0 107.452 87.416 194.935 194.868 194.935 107.446 0 194.984-87.453 194.984-194.935-0.024-107.476-87.538-194.972-194.984-194.972zM357.474 632.089c-52.663-44.317-86.923-109.919-86.923-184.019 0-74.069 34.26-139.677 86.923-184.074-145.714 46.864-260.141 145.47-301.041 184.074 40.906 38.561 155.357 137.179 301.041 184.019zM666.593 264.070c52.626 44.348 86.929 109.968 86.929 184s-34.272 139.604-86.971 183.952c145.708-46.864 260.049-145.348 300.974-183.952-40.93-38.567-155.272-137.070-300.931-184z" />
<glyph unicode="&#xe905;" glyph-name="fb" d="M376.354 761.682c0-25.805 0-140.984 0-140.984h-103.289v-172.396h103.289v-512.3h212.178v512.286h142.382c0 0 13.335 82.663 19.798 173.046-18.532 0-161.378 0-161.378 0s0 100.294 0 117.874c0 17.618 23.134 41.316 45.999 41.316 22.822 0 70.99 0 115.603 0 0 23.472 0 104.573 0 179.474-59.557 0-127.314 0-157.18 0-222.647 0.012-217.402-172.555-217.402-198.315z" />
<glyph unicode="&#xe906;" glyph-name="arrow-left" d="M808.896 891.382l-66.66 68.618-527.13-511.983 527.13-512.017 66.66 68.631-456.425 443.385z" />
<glyph unicode="&#xe907;" glyph-name="cloud" d="M1024 303.511c0-111.855-90.021-202.533-201.023-202.533h-621.989c-111 0-200.987 90.678-200.987 202.533 0 101.022 73.389 184.71 169.404 200.023-1.217 7.090-1.888 14.384-1.888 21.893 0 70.872 57.024 128.318 127.384 128.318 31.378 0 60.133-11.432 82.317-30.455 39.549 89.79 90.249 171.733 232.485 171.733 172.499 0 254.257-134.043 254.257-275.488 0-5.916-0.248-11.778-0.645-17.577 91.687-18.825 160.686-100.513 160.686-198.447z" />
<glyph unicode="&#xe908;" glyph-name="hat" d="M1024 545.333l-512 144.975-512-144.975 188.778-72.796v-69.767c-16.341-6.425-27.955-22.321-27.955-40.914s11.615-34.489 27.955-40.914v-115.253h32.049v115.253c16.341 6.425 27.955 22.321 27.955 40.914s-11.615 34.489-27.955 40.914v57.409l38.762-14.948v-120.71l5.906-4.81c72.91-59.385 158.351-89.075 243.791-89.075s170.884 29.69 243.794 89.075l5.906 4.81v118.616l265.014 102.196zM204.803 349.925c-6.579 0-11.931 5.352-11.931 11.931s5.352 11.931 11.931 11.931 11.931-5.352 11.931-11.931-5.352-11.931-11.931-11.931zM512 657.001l410.832-116.328-410.832-158.43-243.717 93.985 246.958 51.076-6.489 31.385-295.709-61.158-111.875 43.142 410.832 116.328zM726.932 339.847c-131.083-102.621-304.208-102.626-435.294 0v93.026l220.363-84.977 214.932 82.883v-90.932z" />
<glyph unicode="&#xe909;" glyph-name="shield" d="M512-64c-5.271 0-10.542 1.676-14.971 5.028l-266.101 201.547c-101.904 77.179-162.744 199.583-162.744 327.417v348.681c0 11.138 7.423 20.902 18.149 23.887l419.022 116.533c4.349 1.205 8.941 1.205 13.29 0l419.022-116.533c10.726-2.985 18.149-12.754 18.149-23.887v-348.681c0-127.834-60.84-250.233-162.744-327.417l-266.101-201.547c-4.428-3.352-9.699-5.028-14.971-5.028zM117.772 799.834v-329.842c0-112.402 53.496-220.024 143.097-287.89l251.13-190.206 251.13 190.206c89.601 67.867 143.097 175.488 143.097 287.89v329.842l-394.228 109.635-394.228-109.635zM461.574 329.588c-6.575 0-12.883 2.613-17.534 7.26l-181.434 181.439c-9.685 9.685-9.685 25.384 0 35.064 9.69 9.68 25.384 9.675 35.064 0l163.904-163.904 264.752 264.752c9.685 9.68 25.379 9.68 35.064 0 9.685-9.685 9.685-25.384 0-35.064l-282.282-282.287c-4.651-4.646-10.954-7.26-17.534-7.26z" />
<glyph unicode="&#xe90a;" glyph-name="ball" d="M873.912 810.073c-47 47-101.744 83.89-162.726 109.703-63.133 26.673-130.138 40.224-199.293 40.224-69.048-0.108-136.053-13.552-199.186-40.332-60.982-25.812-115.726-62.703-162.726-109.703s-83.89-101.744-109.703-162.726c-26.673-63.133-40.224-130.138-40.224-199.293 0-69.049 13.552-136.16 40.224-199.294 25.812-60.981 62.703-115.726 109.703-162.725 47-47.001 101.744-83.89 162.726-109.703 63.133-26.674 130.138-40.224 199.293-40.224 69.048 0 136.162 13.552 199.293 40.224 60.982 25.812 115.727 62.702 162.727 109.703 46.999 46.999 83.89 101.744 109.703 162.725 26.673 63.134 40.223 130.138 40.223 199.294 0 69.048-13.552 136.16-40.223 199.293-25.921 61.089-62.811 115.726-109.811 162.833zM228.601 844.382c4.625 3.549 9.142 7.314 13.874 10.648 24.844 17.423 52.378 31.513 80.341 43.236 59.584 24.952 124.33 38.073 189.076 38.073 43.128 0 87.332-5.808 128.953-17.208-16.455-6.668-36.568-19.359-70.338-48.183-28.072 3.011-56.465 3.119-84.966 0.43-37.214-3.549-74.641-11.831-111.208-24.737-33.018-11.616-59.153-24.844-76.792-34.954-26.995 9.68-61.842 21.080-79.051 26.673 2.689-0.86 8.281 4.625 10.11 6.023zM694.945 716.395l-87.547-238.98-210.049-40.332-173.588 179.289c11.723 81.309 67.435 153.369 67.435 153.369 0.323 0.215 36.675 26.458 94.968 46.785 33.987 11.938 68.618 19.574 103.142 22.801 28.179 2.581 56.25 2.151 83.998-1.183l121.641-121.749zM42.322 465.047c-5.378-34.739-6.561-70.769-3.764-107.014-4.195 8.388-7.529 15.485-10.002 21.187-3.227 22.478-4.84 45.495-4.84 68.941 0 72.060 15.595 140.57 43.666 202.197-3.119-32.266-1.613-65.714 0.645-91.096-12.046-30.221-20.65-61.734-25.705-94.214zM84.805 278.874c-4.947 18.176-10.755 44.634-13.659 76.362-3.227 35.816-2.259 71.414 3.119 105.509 4.087 26.135 10.648 51.516 19.682 75.932 35.385 29.899 82.277 47.43 108.197 55.497l170.362-175.955-17.854-192.84-166.49-55.604c-42.375 31.19-77.007 72.491-103.357 111.1zM590.728-0.329c-37.105-24.307-130.89-30.114-168.964-31.512-41.945 7.85-82.707 21.294-121.104 39.794-33.556 16.133-65.391 36.137-94.43 59.582 0.538 0.968-4.517 52.272-4.302 70.984l168.211 56.143 194.131-83.998 26.779-110.671c-0.213-0.216-0.321-0.323-0.321-0.323zM913.275 169.925c-28.931-41.73-63.563-80.556-105.186-110.025-39.041-27.533-91.31-36.998-137.774-44.634-3.549-0.538-47.968-7.85-48.291-6.346l-26.779 110.778 136.697 142.291 181.010 16.671c2.797-28.825 6.453-70.877 8.604-96.583-2.796-4.086-5.485-8.173-8.281-12.152zM916.072 314.69c-0.645-1.076-1.291-2.259-1.936-3.55l-180.257-16.561-97.012 169.716 87.762 239.518 123.9-7.851c26.35-22.048 49.689-46.57 69.478-73.028 24.737-33.233 43.989-69.694 57.111-108.305-13.768-119.599-45.495-179.18-59.047-199.939zM980.71 583.784c-10.647 20.542-23.124 40.332-37.213 59.153-22.263 29.792-48.721 57.218-78.728 81.632-5.485 27.211-20.542 70.016-60.982 114.973 0.753-0.538 1.506-1.183 2.26-1.721 2.474-1.828 4.84-3.764 7.314-5.593 27.856-21.941 53.238-46.785 75.716-74.103 41.73-50.872 73.243-109.918 91.742-173.266-0.109-0.43-0.109-0.753-0.109-1.076z" />
<glyph unicode="&#xe90b;" glyph-name="comment" d="M0 56.957v501.045c0 154.952 126.088 281.040 281.040 281.040h461.852c154.986 0 281.108-126.088 281.108-281.040v-86.422c0-154.952-126.088-281.040-281.040-281.040h-455.404l-287.556-133.583zM281.040 776.387c-120.417 0-218.384-97.967-218.384-218.384v-402.842l211.093 98.069h469.211c120.417 0 218.384 97.967 218.384 218.384v86.422c0 120.417-98.001 218.384-218.452 218.384l-461.852-0.034zM301.701 562.762c32.915 0 59.584-26.669 59.584-59.584s-26.669-59.584-59.584-59.584-59.584 26.669-59.584 59.584 26.669 59.584 59.584 59.584zM722.266 562.762c32.915 0 59.584-26.669 59.584-59.584s-26.669-59.584-59.584-59.584-59.584 26.669-59.584 59.584 26.669 59.584 59.584 59.584zM511.949 562.762c32.915 0 59.584-26.669 59.584-59.584s-26.669-59.584-59.584-59.584-59.584 26.669-59.584 59.584 26.669 59.584 59.584 59.584z" />
<glyph unicode="&#xe90c;" glyph-name="bag" d="M945.071 19.6h-866.149c-43.514 0-78.923 35.408-78.923 78.929v538.419c0 43.514 35.408 78.923 78.923 78.923h222.889v91.638c0 37.987 30.903 68.89 68.89 68.89h282.584c37.993 0 68.897-30.903 68.897-68.89v-91.638h222.883c43.52 0 78.929-35.408 78.929-78.923v-538.413c0.006-43.527-35.402-78.935-78.923-78.935zM30.774 522.525v-423.996c0-26.552 21.603-48.155 48.149-48.155h866.149c26.552 0 48.155 21.603 48.155 48.155v424.427l-410.308-146.287v-91.423c0-8.5-6.887-15.387-15.387-15.387h-111.063c-8.5 0-15.387 6.887-15.387 15.387v91.392l-410.308 145.887zM512.003 300.633h40.141v65.062l-34.928-12.451c-3.336-1.182-6.98-1.2-10.328-0.006l-35.033 12.457v-65.062h40.148zM30.774 555.188l481.266-171.121 481.186 171.564v81.317c0 26.546-21.603 48.149-48.155 48.149h-866.149c-26.546 0-48.149-21.603-48.149-48.149v-81.76zM332.585 715.871h358.829v91.638c0 21.019-17.098 38.116-38.123 38.116h-282.59c-21.019 0-38.116-17.098-38.116-38.116v-91.638z" />
<glyph unicode="&#xe90d;" glyph-name="tw" d="M907.979 487.091c57.512 4.745 96.523 30.89 111.536 66.366-20.746-12.744-85.145-26.638-120.711-13.406-1.743 8.356-3.69 16.294-5.602 23.46-27.1 99.51-119.887 179.68-217.11 169.995 7.866 3.176 15.844 6.133 23.798 8.787 10.701 3.833 73.489 14.049 63.602 36.211-8.333 19.494-85.045-14.732-99.489-19.205 19.067 7.171 50.6 19.505 53.979 41.415-29.212-4.007-57.888-17.818-80.045-37.899 7.999 8.611 14.068 19.105 15.356 30.4-77.912-49.774-123.425-150.123-160.258-247.464-28.921 28.029-54.555 50.1-77.55 62.357-64.511 34.595-141.645 70.689-262.727 115.638-3.716-40.061 19.813-93.328 87.612-128.751-14.689 1.966-41.551-2.421-63.035-7.566 8.749-45.894 37.323-83.705 114.678-101.989-35.352-2.333-53.622-10.378-70.18-27.717 16.101-31.919 55.39-69.484 126.068-61.773-78.579-33.869-32.040-96.589 31.9-87.235-109.076-112.664-281.047-104.384-379.798-10.152 257.833-351.332 818.301-207.777 901.825 130.622 62.578-0.533 99.365 21.677 122.175 46.163-36.054-6.119-88.311 0.205-116.021 11.744z" />
<glyph unicode="&#xe90e;" glyph-name="another-eye" d="M1022.878 455.050c-0.32 1.346-0.128 2.788-0.641 4.102-0.192 0.545-0.673 0.833-0.865 1.346-0.32 0.769-0.256 1.634-0.673 2.371-92.934 177.888-295.24 305.335-508.667 305.335-213.459 0-415.734-127.255-508.731-305.111-0.417-0.737-0.353-1.602-0.673-2.371-0.224-0.513-0.673-0.801-0.865-1.346-0.513-1.314-0.32-2.756-0.641-4.102-0.577-2.403-1.122-4.711-1.122-7.178s0.577-4.743 1.122-7.178c0.32-1.346 0.128-2.788 0.641-4.102 0.192-0.545 0.673-0.833 0.865-1.346 0.32-0.769 0.256-1.634 0.673-2.371 92.966-177.888 295.272-305.335 508.731-305.335 213.427 0 415.734 127.255 508.667 305.111 0.449 0.737 0.385 1.602 0.673 2.371 0.192 0.513 0.673 0.801 0.865 1.346 0.513 1.314 0.32 2.756 0.641 4.102 0.545 2.436 1.122 4.743 1.122 7.178s-0.577 4.775-1.122 7.178zM512 191.888c-179.939 0-356.096 102.259-443.87 256.208 88.255 154.142 264.156 256.048 443.87 256.048 179.875 0 356.064-102.291 443.838-256.208-88.255-154.174-264.124-256.048-443.838-256.048zM512 576.088c-0.064 0-0.128-0.032-0.192-0.032-70.662-0.128-127.928-57.395-127.928-128.056 0-8.845 7.178-16.023 16.023-16.023 8.813 0 15.991 7.178 15.991 16.023 0 52.94 43.102 96.042 96.106 96.042v0.032c8.813 0 15.959 7.178 15.959 15.991 0 8.877-7.114 16.023-15.959 16.023zM511.263 672.194c-123.922 0-224.322-100.432-224.322-224.322s100.432-224.322 224.322-224.322c123.858 0 224.322 100.464 224.322 224.322 0 123.922-100.464 224.322-224.322 224.322zM511.263 255.595c-106.040 0-192.276 86.236-192.276 192.276s86.236 192.276 192.276 192.276 192.276-86.236 192.276-192.276-86.236-192.276-192.276-192.276z" />
<glyph unicode="&#xe90f;" glyph-name="vk" d="M981.584 268.342c-30.488 36.568-66.366 67.778-100.314 100.919-30.626 29.872-32.557 47.201-7.938 81.679 26.869 37.63 55.765 73.816 82.878 111.276 25.309 35.008 51.181 69.921 64.499 111.838 8.447 26.668 0.976 38.447-26.37 43.116-4.712 0.817-9.582 0.86-14.379 0.86l-162.244 0.191c-19.982 0.297-31.029-8.415-38.097-26.126-9.54-23.94-19.377-47.859-30.742-70.961-25.787-52.38-54.587-103.009-94.965-145.881-8.903-9.455-18.751-21.404-33.629-16.48-18.613 6.792-24.099 37.46-23.792 47.828l-0.159 187.267c-3.608 26.752-9.54 38.68-36.101 43.88l-168.537-0.032c-22.497 0-33.777-8.691-45.79-22.762-6.93-8.129-9.020-13.403 5.221-16.098 27.973-5.306 43.731-23.41 47.912-51.457 6.707-44.814 6.24-89.808 2.377-134.802-1.135-13.137-3.396-26.243-8.606-38.51-8.15-19.282-21.309-23.208-38.595-11.344-15.652 10.739-26.646 25.893-37.407 41.11-40.42 57.113-72.67 118.704-98.966 183.426-7.598 18.698-20.704 30.032-40.516 30.339-48.677 0.775-97.364 0.902-146.040-0.042-29.289-0.552-38.022-14.772-26.095-41.323 53.017-117.929 112.029-232.58 189.061-337.021 39.55-53.6 84.958-100.919 143.621-134.452 66.483-38.012 138.049-49.451 213.425-45.928 35.295 1.655 45.896 10.835 47.53 46.013 1.104 24.068 3.831 47.997 15.706 69.624 11.652 21.224 29.299 25.267 49.642 12.066 10.177-6.611 18.751-15.026 26.848-23.898 19.865-21.733 39.020-44.124 59.639-65.125 25.861-26.317 56.497-41.864 95.018-38.691l149.118-0.032c24.025 1.571 36.484 31.029 22.688 57.845-9.689 18.783-22.402 35.507-35.9 51.69z" />
<glyph unicode="&#xe910;" glyph-name="ytb" d="M1006.305 690.055c-12.536 54.458-57.080 94.636-110.703 100.629-126.981 14.175-255.506 14.249-383.438 14.175-127.954 0.074-256.499 0-383.481-14.175-53.592-5.993-98.103-46.171-110.64-100.629-17.843-77.554-18.044-162.212-18.044-242.060s0-164.495 17.843-242.039c12.515-54.448 57.037-94.626 110.661-100.629 126.971-14.185 255.506-14.259 383.46-14.185 127.975-0.074 256.478 0 383.438 14.185 53.592 5.993 98.145 46.171 110.682 100.629 17.853 77.554 17.917 162.202 17.917 242.039 0 79.848 0.148 164.506-17.695 242.060zM379.855 289.059c0 113.272 0 225.359 0 338.641 108.526-56.625 216.332-112.87 325.545-169.844-108.874-56.467-216.734-112.373-325.545-168.797z" />
<glyph unicode="&#xe911;" glyph-name="ok" d="M511.136 911.608c-134.373 0-243.254-108.881-243.254-243.254s108.881-243.254 243.254-243.254c134.373 0 243.254 108.881 243.254 243.254s-108.881 243.254-243.254 243.254zM511.136 569.411c-54.873 0-98.943 44.503-98.943 98.943 0 54.873 44.503 98.943 98.943 98.943 54.873 0 98.943-44.503 98.943-98.943s-44.071-98.943-98.943-98.943zM746.613 101.914l-1.296 1.296c-0.864 1.296-2.16 2.16-3.024 3.024l-136.965 131.781c0 0 36.294 2.592 60.057 9.938 36.294 10.802 39.318 12.53 53.144 18.579 29.813 14.258 67.403 39.75 67.403 82.957 0 41.911-34.133 76.044-76.044 76.044-15.122 0-29.381-4.321-41.478-12.098v0c0 0-49.256-40.182-156.841-40.182-106.289 0-159.433 41.478-159.433 41.478v0c-11.234 6.913-24.628 10.802-38.886 10.802-41.911 0-76.044-34.133-76.044-76.044 0-44.503 39.75-68.267 69.563-81.661 17.283-7.777 38.022-17.283 71.291-23.332 26.356-4.753 41.478-6.049 41.478-6.049l-136.101-125.732c-4.753-3.457-9.073-7.345-12.962-12.098l-0.432-0.432c-11.234-13.394-18.147-30.677-18.147-49.256 0-41.911 34.133-76.044 76.044-76.044 19.875 0 38.454 7.777 51.848 20.307v0l0.864 0.864c0.864 0.864 1.296 1.296 2.16 2.16l127.892 128.756 122.707-127.46c1.296-1.296 2.592-2.592 3.889-3.889l0.864-0.864c13.394-12.53 31.973-20.307 51.848-20.307 41.911 0 76.044 34.133 76.044 76.044 0.432 19.875-6.913 37.59-19.443 51.416v0z" />
<glyph unicode="&#xe912;" glyph-name="user" d="M941.491 151.543l-3.451-4.141c-113.614-136.318-264.948-211.425-426.040-211.425-161.116 0-312.426 75.084-426.064 211.425l-3.427 4.141 0.809 5.307c21.942 143.124 96.717 258.094 210.545 323.802l8.091 4.664 6.449-6.759c53.761-56.402 126.060-87.436 203.572-87.436s149.811 31.057 203.572 87.436l6.449 6.759 8.091-4.664c113.828-65.708 188.603-180.678 210.569-323.802l0.833-5.307zM512 448.595c140.982 0 255.691 114.709 255.691 255.691s-114.709 255.714-255.691 255.714-255.691-114.732-255.691-255.691 114.709-255.714 255.691-255.714z" />
<glyph unicode="&#xe913;" glyph-name="search" d="M1017.286-25.002l-345.712 345.679c60.341 67.949 97.34 157.031 97.34 254.842 0 212.008-172.458 384.465-384.449 384.465-212.008 0-384.465-172.458-384.465-384.465 0-211.992 172.458-384.449 384.465-384.449 97.795 0 186.893 36.998 254.842 97.34l345.679-345.712c4.438-4.438 10.306-6.681 16.142-6.681 5.852 0 11.72 2.243 16.158 6.681 8.941 8.957 8.941 23.376 0 32.3zM384.465 236.748c-186.811 0-338.787 151.959-338.787 338.77s151.975 338.787 338.787 338.787c186.795 0 338.77-151.975 338.77-338.787 0-85.197-31.829-162.932-83.929-222.525-10.062-11.477-20.824-22.238-32.3-32.3-59.594-52.116-137.345-83.945-222.542-83.945z" />
<glyph unicode="&#xe914;" glyph-name="menu" d="M0 106.667h1024v113.778h-1024v-113.778zM0 391.111h1024v113.778h-1024v-113.778zM0 789.333v-113.778h1024v113.778h-1024z" />
<glyph unicode="&#xe915;" glyph-name="bag2" horiz-adv-x="955" d="M770.239 712.21c-29.854 141.31-149.271 247.79-291.576 247.79s-262.717-106.48-291.576-247.79h-187.086v-776.21h955.335v776.21h-185.096zM478.663 840.583c76.626 0 142.305-53.738 168.179-128.373h-336.358c24.879 74.636 90.558 128.373 168.179 128.373zM834.923 56.412h-716.501v536.381h60.704v-119.417h119.417v119.417h357.256v-119.417h119.417v119.417h59.708v-536.381z" />
<glyph unicode="&#xe916;" glyph-name="graduate" d="M15.188 521.43l152.828-73.618v-122.55c0-10.306 5.904-19.703 15.188-24.176l292.371-140.836c3.632-1.747 7.612-2.656 11.646-2.656h49.13c4.034 0 8.012 0.908 11.648 2.656l291.562 140.45c5.652 2.726 10.171 7.342 12.773 13.050 0.367 0.805 0.717 1.619 1.067 2.434 1.423 3.332 2.157 6.919 2.157 10.54v121.090l41.687 20.080v-166.183c-9.021-6.013-15.974-15.023-19.342-25.995l-23.719-77.287c-2.922-9.531-2.842-19.587 0.234-29.071l21.995-67.789c6.273-19.336 24.14-32.746 44.457-33.371 0.135-0.004 0.268-0.006 0.404-0.009l0.67-0.011c0.14-0.002 0.279-0.002 0.421-0.002 19.973 0 37.611 12.009 44.933 30.597l25.432 64.556c3.924 9.954 4.42 21.089 1.395 31.353l-23.713 80.509c-3.304 11.225-10.317 20.441-19.499 26.551v191.999l57.897 27.89c9.285 4.474 15.188 13.868 15.188 24.176v21.371c0 10.306-5.904 19.703-15.188 24.176l-485.382 233.807c-7.361 3.544-15.933 3.544-23.292 0l-484.95-233.603c-9.285-4.472-15.188-13.868-15.188-24.176v-21.781c0-10.306 5.904-19.701 15.188-24.174zM922.848 132.353l-16.858 51.955 17.981 58.595 18.153-61.62-19.275-48.93zM801.889 342.12l-271.664-130.862h-36.879l-271.662 130.862v79.837l278.456-134.134c3.679-1.773 7.662-2.658 11.646-2.658s7.964 0.884 11.646 2.658l278.459 134.132-0.002-79.835zM511.784 771.204l445.729-214.709-136.882-65.937c-1.206-0.382-2.396-0.831-3.555-1.387l-305.293-147.064-305.29 147.064c-1.157 0.556-2.346 1.005-3.551 1.387l-136.884 65.939 445.725 214.707z" />
<glyph unicode="&#xe917;" glyph-name="house" d="M855.2 457.618c-16.632 0-29.512-12.822-29.512-29.534v-403.419h-209.277v164.732c0 15.454-12.879 28.963-28.448 28.963h-151.317c-16.645 0-30.051-13.508-30.051-28.963v-164.732h-208.749v390.025c0 15.571-12.867 28.505-29.512 28.505-15.557 0-28.436-12.934-28.436-28.505v-419.56c0-15.569 12.879-28.505 28.436-28.505h268.312c15.557 0 28.436 12.936 28.436 28.505v164.734h93.367v-164.734c0-15.569 12.879-28.505 29.514-28.505h267.236c15.559 0 28.436 12.936 28.436 28.505v432.953c0 16.712-12.877 29.535-28.436 29.535zM1015.642 434.608l-232.884 233.878v159.467c0 16.6-13.417 29.42-30.051 29.42-15.569 0-28.446-12.822-28.446-29.42v-100.97l-192.104 193.239c-5.886 5.953-12.879 9.159-19.851 9.159-8.048 0-15.030-3.32-20.927-9.159l-482.409-482.408c-11.574-11.562-12.34-30.108 0-40.754 10.727-12.363 29.204-11.562 40.778 0l462.558 461.459 461.483-465.809c4.807-4.809 11.803-7.556 20.927-7.556 8.048 0 15.019 2.747 20.927 7.556 10.737 10.76 11.538 30.221 0 41.899z" />
<glyph unicode="&#xe918;" glyph-name="left-arrow23" d="M808.896 891.382l-66.66 68.618-527.13-511.983 527.13-512.017 66.66 68.631-456.425 443.385z" />
<glyph unicode="&#xe919;" glyph-name="quote-1" d="M1003.020 779.177v-88.114c-83.319-4.795-160.843-39.561-220.185-98.903-12.188-12.188-23.577-25.375-33.767-39.362l-28.772-39.162 47.953 7.593c10.59 1.598 21.379 2.597 31.969 2.597 112.29 0 203.801-91.511 203.801-203.801s-91.511-203.801-203.801-203.801-203.801 91.511-203.801 203.801v0.799l-0.999 31.569c0 57.544 11.389 113.489 33.567 166.038 21.579 50.95 52.349 96.706 91.71 135.867 39.362 39.362 84.917 70.132 135.867 91.71 46.555 19.781 95.707 30.97 146.457 33.168zM427.582 779.177v-88.114c-83.119-4.795-160.843-39.561-220.185-98.903-12.188-12.188-23.577-25.375-33.767-39.162l-28.772-39.162 47.953 7.593c10.59 1.598 21.379 2.597 31.969 2.597 112.29 0 203.801-91.511 203.801-203.801s-91.511-203.801-203.801-203.801-203.801 91.511-203.801 203.801v0.799l-0.999 31.569c0 57.544 11.389 113.489 33.567 166.038 21.579 50.95 52.349 96.706 91.71 135.867 39.362 39.362 84.917 70.132 135.867 91.71 46.555 19.581 95.707 30.77 146.457 32.968zM1023.001 799.756c-247.159 0-447.563-200.404-447.563-447.563l0.999-31.969c0-123.679 100.102-223.781 223.781-223.781s223.781 100.102 223.781 223.781-100.102 223.781-223.781 223.781c-11.988 0-23.577-0.999-35.166-2.797 9.591 12.987 20.18 25.375 31.769 36.964 60.341 60.341 140.663 93.708 225.979 93.708v127.875h0.2zM447.563 799.756c-247.159 0-447.563-200.404-447.563-447.563l0.999-31.969c0-123.679 100.102-223.781 223.781-223.781s223.781 100.102 223.781 223.781-100.102 223.781-223.781 223.781c-11.988 0-23.577-0.999-35.166-2.797 9.591 12.987 20.18 25.375 31.769 36.964 60.341 60.341 140.663 93.708 225.979 93.708v127.875h0.2z" />
<glyph unicode="&#xe91a;" glyph-name="heart-pulse" d="M1024.011 577.97c0-29.117-4.771-57.842-14.030-85.456-43.496-196.805-419.611-434.883-435.613-445.013-5-3.105-10.61-4.728-16.329-4.728-5.708 0-11.394 1.438-16.394 4.728-4.303 2.8-110.27 69.672-217.708 161.587-12.865 11.089-14.215 30.217-3.42 43.027 11.056 12.701 30.163 14.248 43.049 3.453 80.086-68.419 161.021-123.734 194.626-146.021 112.961 73.648 362.335 261.019 392.901 399.208 7.985 24.411 11.59 46.611 11.59 69.149 0 78.452-42.712 150.771-111.49 188.657-87.831 48.735-205.399 26.263-269.657-51.197-11.547-13.987-35.293-13.987-47.058 0-64.454 77.515-181.936 99.813-269.646 51.284-68.996-37.973-111.708-110.248-111.708-188.624 0-22.385 3.791-44.683 10.849-66.219 4.532-20.152 13.202-39.858 24.237-60.304h178.167l61.186 140.618c5.24 12.037 17.756 19.607 30.631 18.257 13.115-1.144 24.052-10.577 26.971-23.387l45.043-190.432 58.267 95.543c5.49 9.074 15.37 14.618 26.045 14.618h110.575c16.83 0 30.511-13.627 30.511-30.533 0-16.819-13.682-30.522-30.511-30.522h-93.44l-87.776-144.18c-5.599-9.194-15.468-14.684-25.958-14.684-1.667 0-3.279 0.131-4.771 0.359-12.298 1.972-21.982 11.035-24.934 23.071l-41.165 173.461-32.527-74.868c-4.858-11.253-15.871-18.355-28.017-18.355h-355.984c-16.71 0.011-30.522 13.671-30.522 30.522 0 16.819 13.812 30.522 30.522 30.522h89.508c-6.351 15.152-11.481 29.858-14.662 44.084-8.518 24.705-13.126 53.474-13.126 82.439 0 100.673 54.748 193.362 143.211 242.098 102.46 56.676 238.046 38.855 322.717-40.707 84.443 79.574 219.93 97.384 322.565 40.707 88.353-48.67 143.276-141.424 143.276-242.163z" />
<glyph unicode="&#xe91b;" glyph-name="man" d="M846.905 366.474l-2.138 2.459c-9.967 12.411-31.829 29.942-63.602 42.047l-5.064 1.511c-34.935 16.11-66.277 26.599-72.42 28.597-7.006 2.319-12.808 4.798-17.53 6.881-36.426 17.942-41.168 28.431-41.901 30.805l-1.867 4.276 1.671 3.935c27.282 33.946 46.448 73.569 53.831 111.074l1.129 2.625c7.508 9.52 12.341 20.707 14.208 33.033 8.602 31.307 9.054 54.262 1.31 70.282l-0.843 1.726 0.432 1.867c9.701 40.501 19.021 116.409-27.497 169.266-7.383 9.234-35.723 40.737-91.17 56.957l-27.051 9.249c-45.213 13.902-73.233 16.903-76.912 16.938-2.946 0-5.531-0.286-9.285-1.204l-3.649-0.592c-14.298 2.299-31.969-4.15-36.747-5.997-15.628-6.539-94.743-43.126-119.801-120.7-4.166-10.976-12.647-44.491-1.636-117.879l0.321-2.243-1.365-1.817c-11.242-15.031-12.105-39.512-2.675-72.58 2.389-14.584 7.147-26.208 14.223-35.131l1.26-2.66c6.861-38.363 23.944-76.319 49.394-109.709l2.354-3.162-2.243-3.232c-1.094-1.651-1.852-3.322-2.012-4.366-6.324-18.017-76.711-49.429-138.446-68.304-44.415-16.813-63.923-44.024-64.013-44.24-61.228-90.778-68.952-285.689-69.278-294.096 0.969-50.689 23.994-61.012 28.431-62.488l3.879-1.726c135.319-59.040 332.945-70.533 355.073-71.667l6.916-0.216c6.63 0 13.29 0.376 19.578 0.683l0.537 0.055 2.028-0.161c1.671-0.412 2.946-0.577 4.331-0.577h0.954c8.999 0.467 221.194 12.517 353.617 71.988 9.611 2.494 32.044 13.957 32.867 65.539-0.316 8.326-9.169 203.654-69.198 292.956zM401.792 458.597l3.684 3.433 3.649-3.468c32.436-30.554 68.304-47.361 100.976-47.361 34.323 0 69.745 14.926 102.487 43.106l2.71 2.334 7.167-3.483c6.053-5.586 16.973-13.525 21.877-15.929l6.79-3.287-0.738-0.738 2.625-1.561c6.163-3.649 12.753-7.187 20.281-10.941 7.654-3.358 14.173-5.892 21.033-8.191 1.385-0.467 33.696-10.901 70.568-27.964l6.574-2.028c35.005-13.345 49.77-32.135 50.307-32.797 54.312-80.59 63.492-256.666 64.355-276.35-0.412-27.588-8.211-34.629-10.328-36.029-121.739-54.513-305.699-68.646-341.281-70.929l-1.004-0.055-1.024 0.286c-1.169 0.396-2.424 0.557-3.935 0.557h-0.035l-1.22-0.055c-9.751-0.662-17.801-0.989-25.324-0.989h-5.872c-22.218 1.295-220.527 14.333-347.495 70.819-2.585 1.044-10.093 9.701-10.615 34.99 0.055 1.867 6.519 191.895 63.547 276.585 2.785 3.538 18.283 21.59 49.284 33.425 27.231 8.406 94.602 30.729 131.46 57.424 1.671 0.969 3.342 2.73 4.708 4.166 2.7 2.941 8.306 8.958 14.79 15.031zM343.936 691.766l1.275 1.455c4.958 3.593 7.347 9.234 6.414 14.996-12.356 74.523-4.276 105.558-1.491 113.372 21.57 66.187 89.554 97.172 102.898 102.652 2.785 1.094 7.975 2.675 13.47 3.558l1.385 0.306 11.262 0.627 0.055-0.662 2.409 0.216c2.243 0.216 4.381 0.557 6.971 1.079l2.585 0.592c2.083-0.020 28.326-3.307 67.873-15.427l27.282-9.36c49.75-14.71 72.922-42.262 77.178-47.758 39.984-45.354 29.314-113.749 19.382-150.496-1.129-4.221-0.412-8.622 1.977-12.231l2.208-2.876c3.649-4.848 5.029-21.174-3.142-51.477-1.636-9.877-5.315-17.892-10.725-23.242-1.887-2.083-3.287-4.903-3.809-7.92-13.505-79.26-84.51-167.921-159.334-167.921-63.617 0-136.127 81.599-149.166 167.865-0.467 3.127-1.832 5.947-4.025 8.351-5.425 5.621-8.893 13.741-11.011 25.791-6.248 22.659-6.896 40.912-1.922 48.506z" />
<glyph unicode="&#xe91c;" glyph-name="money" d="M850.626 494.45c-55.113 89.801-128.028 168.204-201.695 217.289 4.584 7.358 7.242 16.036 7.242 25.326 0 19.538-11.73 36.378-28.514 43.879l34.572 135.6c3.816 13.51 1.35 26.016-6.784 34.346-8.186 8.38-20.734 11.13-34.426 7.53-0.27-0.070-0.54-0.148-0.804-0.232-0.652-0.208-65.469-20.9-86.995-27.084-13.856-3.97-38.179-3.994-52.051-0.042-21.752 6.196-87.253 26.972-87.913 27.182-0.264 0.084-0.532 0.162-0.798 0.23-13.696 3.574-26.244 0.816-34.426-7.574s-10.626-21.006-6.706-34.614c0.048-0.17 0.1-0.338 0.156-0.506l43.875-135.28c-16.256-7.71-27.528-24.278-27.528-43.433 0-9.29 2.658-17.968 7.244-25.326-73.667-49.085-146.582-127.488-201.695-217.289-60.579-98.707-93.941-200.313-93.941-286.102 0-82.911 24.578-148.378 73.053-194.579 54.141-51.605 137.364-77.769 247.359-77.769h224.305c109.996 0 193.219 26.164 247.359 77.769 48.475 46.203 73.053 111.668 73.053 194.579 0 85.785-33.362 187.393-93.941 286.1zM544.133 721.021c-0.006 0-0.010 0-0.016 0h-64.225c-0.012 0-0.024 0-0.036 0h-63.987c-8.846 0-16.042 7.198-16.042 16.042 0 8.834 7.18 16.024 16.012 16.042 0.010 0 0.020-0.002 0.028-0.002 0.016 0 0.034 0.004 0.050 0.004h80.013c0.018 0 0.034-0.004 0.052-0.004 0.028 0 0.056 0.004 0.084 0.004h31.866c0.028 0 0.056-0.004 0.084-0.004 0.018 0 0.034 0.004 0.052 0.004h80.061c8.846 0 16.042-7.198 16.042-16.042s-7.198-16.042-16.042-16.042h-63.997zM381.513 927.998c0.642-0.040 1.482-0.152 2.518-0.402 6.362-2.018 66.883-21.194 88.375-27.314 19.536-5.56 50.125-5.538 69.643 0.062 21.256 6.106 81.105 25.188 87.445 27.212 1.012 0.246 1.838 0.36 2.474 0.402-0.064-0.708-0.222-1.648-0.56-2.816-0.044-0.158-0.088-0.316-0.128-0.476l-35.582-139.558h-44.043l23.266 58.167c3.282 8.204-0.708 17.516-8.914 20.796s-17.516-0.708-20.798-8.914l-28.020-70.049h-10.378l-28.020 70.049c-3.282 8.208-12.592 12.196-20.798 8.914-8.204-3.282-12.196-12.594-8.914-20.796l23.266-58.167h-44.845l-45.485 140.252c-0.302 1.090-0.444 1.97-0.502 2.638zM849.436 36.931c-47.991-45.739-123.786-68.931-225.281-68.931h-224.307c-101.497 0-177.292 23.192-225.281 68.931-41.891 39.929-63.131 97.601-63.131 171.416 0 79.959 31.682 175.622 89.213 269.364 55.097 89.775 128.384 167.394 201.357 213.357 4.392-1.326 9.046-2.048 13.864-2.048h34.19l-15.46-23.19c-4.902-7.352-2.916-17.288 4.438-22.188 2.728-1.818 5.81-2.69 8.86-2.69 5.17 0 10.244 2.502 13.328 7.126l27.292 40.941h46.961l27.292-40.941c3.084-4.626 8.156-7.126 13.328-7.126 3.050 0 6.132 0.872 8.86 2.69 7.352 4.9 9.34 14.836 4.438 22.188l-15.46 23.19h34.19c4.82 0 9.474 0.722 13.866 2.048 72.971-45.963 146.26-123.584 201.355-213.357 57.531-93.741 89.213-189.403 89.213-269.364 0.004-73.815-21.238-131.488-63.127-171.416zM511.999 448.695c29.12 0 56.083-13.886 62.723-32.32 0.918-2.54 1.384-5.148 1.384-7.754 0-26.49 21.552-48.043 48.043-48.043s48.043 21.552 48.043 48.043c0 13.724-2.382 27.296-7.082 40.347-15.764 43.757-54.951 76.613-106.073 89.603-4.534 21.812-23.904 38.257-47.043 38.257-23.090 0-42.429-16.376-47.013-38.123-29.784-7.798-56.657-23.016-76.625-43.569-23.576-24.264-36.558-54.989-36.558-86.515 0-75.081 71.863-136.164 160.196-136.164 30.262 0 64.109-17.138 64.109-40.075s-33.846-40.077-64.109-40.077-64.109 17.138-64.109 40.077c0 26.49-21.552 48.043-48.043 48.043s-48.037-21.554-48.037-48.045c0-31.528 12.982-62.253 36.558-86.517 19.966-20.55 46.841-35.77 76.625-43.567 4.584-21.748 23.922-38.125 47.013-38.125s42.429 16.376 47.013 38.125c29.784 7.796 56.657 23.016 76.625 43.567 23.576 24.264 36.558 54.989 36.558 86.517 0 75.079-71.863 136.162-160.196 136.162-30.262 0-64.109 17.138-64.109 40.077 0 22.936 33.844 40.077 64.107 40.077zM511.999 336.541c70.687 0 128.196-46.727 128.196-104.161 0-47.805-41.695-90.429-99.139-101.351-7.548-1.436-13.012-8.036-13.012-15.718v-3.094c0-8.846-7.198-16.042-16.042-16.042-8.846 0-16.042 7.198-16.042 16.042v3.094c0 7.684-5.462 14.284-13.012 15.718-57.445 10.922-99.139 53.545-99.139 101.351 0 8.846 7.198 16.042 16.042 16.042s16.042-7.198 16.042-16.042c0-39.743 43.115-72.077 96.109-72.077s96.109 32.334 96.109 72.077-43.115 72.075-96.109 72.075c-70.687 0-128.196 46.727-128.196 104.163 0 47.805 41.695 90.429 99.139 101.349 7.548 1.436 13.012 8.036 13.012 15.718v3.094c0 8.846 7.198 16.042 16.042 16.042 8.846 0 16.042-7.198 16.042-16.042v-3.29c0-7.706 5.492-14.316 13.068-15.728 45.023-8.396 81.001-35.848 93.897-71.643 3.442-9.556 5.188-19.482 5.188-29.5 0-8.846-7.198-16.042-16.042-16.042s-16.042 7.198-16.042 16.042c0 6.328-1.108 12.6-3.286 18.62-11.336 31.474-49.507 53.457-92.823 53.457-52.995 0-96.109-32.332-96.109-72.075s43.113-72.079 96.107-72.079z" />
<glyph unicode="&#xe91d;" glyph-name="pin" d="M512 755.2c-91.566 0-163.84-72.356-163.84-163.84s72.274-163.84 163.84-163.84c91.566 0 163.84 72.356 163.84 163.84s-72.274 163.84-163.84 163.84zM512 468.48c-69.038 0-122.88 53.903-122.88 122.88s53.842 122.88 122.88 122.88c69.038 0 122.88-53.903 122.88-122.88s-53.842-122.88-122.88-122.88zM512 960c-203.694 0-368.64-170.414-368.64-368.64 0-302.264 368.64-655.36 368.64-655.36s368.64 353.096 368.64 655.36c0 198.226-164.946 368.64-368.64 368.64zM512-2.56c-84.173 88.187-327.68 359.956-327.68 593.92 0 177.766 149.77 327.68 327.68 327.68s327.68-149.914 327.68-327.68c0-233.964-243.507-505.733-327.68-593.92z" />
<glyph unicode="&#xe91e;" glyph-name="quote-2" d="M799.22 779.776c112.29 0 203.801-91.511 203.801-203.801v-0.799l0.999-31.569c0-57.544-11.389-113.489-33.567-166.038-21.579-50.95-52.349-96.706-91.71-135.867-39.362-39.362-84.917-70.132-135.867-91.71-46.555-19.781-95.707-30.77-146.457-33.168v88.114c83.119 4.795 160.843 39.561 220.185 98.903 12.188 12.188 23.577 25.375 33.767 39.162l28.772 39.162-47.953-7.593c-10.59-1.598-21.379-2.597-31.969-2.597-112.29 0-203.801 91.511-203.801 203.801s91.511 204.001 203.801 204.001zM223.781 779.776c112.29 0 203.801-91.511 203.801-203.801v-0.799l0.999-31.569c0-57.544-11.389-113.489-33.567-166.038-21.579-50.95-52.349-96.706-91.71-135.867-39.362-39.362-84.917-70.132-135.867-91.71-46.555-19.781-95.707-30.77-146.457-33.168v88.114c83.319 4.596 160.843 39.362 220.185 98.903 12.188 12.188 23.577 25.375 33.767 39.362l28.772 39.162-47.953-7.593c-10.59-1.598-21.379-2.597-31.969-2.597-112.29 0-203.801 91.511-203.801 203.801s91.511 203.801 203.801 203.801zM799.22 799.756c-123.679 0-223.781-100.102-223.781-223.781s100.102-223.781 223.781-223.781c11.988 0 23.577 0.999 35.166 2.797-9.591-12.987-20.18-25.375-31.769-36.964-60.341-60.341-140.663-93.708-225.979-93.708v-127.875c247.159 0 447.563 200.404 447.563 447.563l-0.999 31.969c-0.2 123.479-100.302 223.781-223.981 223.781v0zM223.781 799.756c-123.679 0-223.781-100.102-223.781-223.781s100.102-223.781 223.781-223.781c11.988 0 23.577 0.999 35.166 2.797-9.591-12.987-20.18-25.375-31.769-36.964-60.541-60.541-140.862-93.708-226.179-93.708v-127.875c247.159 0 447.563 200.404 447.563 447.563l-0.999 31.969c0 123.479-100.102 223.781-223.781 223.781v0z" />
<glyph unicode="&#xe91f;" glyph-name="tracktor" d="M321.871 327.85c-11.113 0-20.123-9.010-20.123-20.123 0-33.22-27.015-60.245-60.222-60.245-33.217 0-60.242 27.025-60.242 60.245 0 33.212 27.025 60.235 60.242 60.235 11.113 0 20.123 9.010 20.123 20.123s-9.010 20.123-20.123 20.123c-55.408 0-100.487-45.075-100.487-100.48 0-55.41 45.080-100.49 100.487-100.49 55.398 0 100.467 45.080 100.467 100.49 0 11.113-9.010 20.123-20.123 20.123zM882.463 227.235c-11.113 0-20.123-9.010-20.123-20.123 0-10.668-8.673-19.345-19.338-19.345s-19.343 8.678-19.343 19.345c0 10.665 8.678 19.34 19.343 19.34 11.113 0 20.123 9.010 20.123 20.123s-9.010 20.123-20.123 20.123c-32.858 0-59.588-26.73-59.588-59.586 0-32.858 26.733-59.591 59.588-59.591s59.583 26.733 59.583 59.591c0 11.115-9.010 20.123-20.123 20.123zM943.51 510.048h-80.387v141.802c0 10.29 0 27.515-14.171 41.687l-30.498 30.501c-7.86 7.86-20.598 7.86-28.458 0-7.858-7.858-7.858-20.598 0-28.456l30.498-30.498c1.479-1.479 2.385-2.91 2.385-13.231v-141.802h-128.921l-38.012 243.969c-0.078 0.506-0.176 1.009-0.292 1.507-9.795 41.656-50.981 74.285-93.769 74.285h-259.999c-44.383 0-80.49-36.108-80.49-80.49v-139.601h-81.25c-11.113 0-20.123-9.010-20.123-20.123s9.010-20.123 20.123-20.123h81.25v-21.068c-123.794-10.275-221.394-114.284-221.394-240.669 0-133.189 108.355-241.544 241.544-241.544 104.924 0 194.42 67.29 227.657 160.986h234.338c-0.938-6.555-1.451-13.248-1.451-20.060 0-77.709 63.22-140.926 140.926-140.926 77.688 0 140.894 63.22 140.894 140.926 0 10.064-1.082 19.879-3.096 29.351 26.016 13.741 43.186 41.105 43.186 71.199v121.888c0.003 44.383-36.108 80.49-80.488 80.49zM619.007 729.669l34.221-219.621h-161.308l-52.515 51.594c-23.091 22.686-63.286 41.178-98.374 46.488v121.538h277.976zM261.639 749.319c0 22.193 18.055 40.245 40.245 40.245h259.997c14.876 0 30.461-7.999 41.344-19.652h-274.82c-15.233 0-27.621-12.393-27.621-27.623v-132.57h-39.146v139.601zM241.544 106.436c-110.996 0-201.299 90.303-201.299 201.302 0 110.981 90.303 201.271 201.299 201.271 110.964 0 201.239-90.29 201.239-201.271 0-110.999-90.273-201.302-201.239-201.302zM843.015 106.436c-55.516 0-100.681 45.165-100.681 100.681 0 55.506 45.165 100.666 100.681 100.666 55.496 0 100.648-45.158 100.648-100.666 0-55.516-45.15-100.681-100.648-100.681zM966.573 274.762c-23.974 43.626-70.364 73.266-123.555 73.266-56.137 0-104.698-32.999-127.338-80.604h-236.031c2.213 13.115 3.381 26.579 3.381 40.313 0 126.405-97.602 230.424-221.392 240.674v21.063h60.232c27.774 0 69.516-17.074 89.329-36.538l58.386-57.365c3.763-3.698 8.826-5.768 14.101-5.768h192.961c0.018 0 0.035-0.003 0.055-0.003 0.010 0 0.020 0.003 0.033 0.003h266.776c15.623 0 29.165-8.967 35.831-22.009h-34.156c-11.113 0-20.123-9.010-20.123-20.123s9.010-20.123 20.123-20.123h38.57v-99.879c0-13.266-6.676-25.488-17.182-32.911zM823.611 447.794c-11.113 0-20.123-9.010-20.123-20.123v-39.589c0-11.113 9.010-20.123 20.123-20.123s20.123 9.010 20.123 20.123v39.589c0 11.115-9.012 20.123-20.123 20.123zM763.233 447.794c-11.113 0-20.123-9.010-20.123-20.123v-39.589c0-11.113 9.010-20.123 20.123-20.123s20.123 9.010 20.123 20.123v39.589c0 11.115-9.010 20.123-20.123 20.123zM702.856 447.794c-11.113 0-20.123-9.010-20.123-20.123v-39.589c0-11.113 9.010-20.123 20.123-20.123s20.123 9.010 20.123 20.123v39.589c0 11.115-9.010 20.123-20.123 20.123zM642.478 447.794c-11.113 0-20.123-9.010-20.123-20.123v-39.589c0-11.113 9.010-20.123 20.123-20.123s20.123 9.010 20.123 20.123v39.589c0 11.115-9.010 20.123-20.123 20.123z" />
<glyph unicode="&#xe920;" glyph-name="vagon" d="M1006.876 300.164h-10.527c0.054 2.408 0.105 4.833 0.156 7.275 2.395-1.274 5.124-2.001 8.025-2.001 9.457 0 17.124 7.667 17.124 17.124v64.828c0 9.457-7.667 17.124-17.124 17.124-2.682 0-5.21-0.634-7.468-1.732-0.381 25.153-1.336 47.296-3.183 62.305-0.978 7.945-3.119 18.877-5.891 31.202-0.032 0.163-0.071 0.321-0.107 0.482-10.062 44.577-28.295 107.053-30.050 113.049-0.67 2.654-1.436 5.261-2.243 7.847-0.090 0.315-0.193 0.623-0.3 0.931-19.232 60.19-75.083 101.462-139.011 101.462h-68.756v25.737h66.31c9.457 0 17.124 7.667 17.124 17.124s-7.667 17.124-17.124 17.124h-629.843c-9.457 0-17.124-7.667-17.124-17.124s7.667-17.124 17.124-17.124h72.853v-25.737h-80.85c-64.631 0-119.556-42.231-138.713-100.536-0.263-0.634-0.477-1.289-0.664-1.959-4.3-13.746-6.62-28.359-6.62-43.505v-273.896h-12.871c-9.457 0-17.124-7.667-17.124-17.124v-83.431c0-9.457 7.667-17.124 17.124-17.124h76.886c9.457 0 17.124 7.667 17.124 17.124v6.323h27.124c8.224-50.943 52.489-89.979 105.716-89.979s97.492 39.036 105.716 89.979h298.441c8.224-50.943 52.489-89.979 105.716-89.979s97.492 39.036 105.716 89.979h27.124v-6.323c0-9.457 7.667-17.124 17.124-17.124h103.068c9.457 0 17.124 7.667 17.124 17.124v83.431c0 9.457-7.667 17.124-17.124 17.124zM830.953 513.447l69.512 82.389h25.765c3.791-13.106 14.786-51.562 23.288-85.724h-118.565v3.335zM830.953 566.554v29.279h24.705l-24.705-29.279zM291.089 745.797h422.186v-25.737h-422.186v25.737zM64.24 519.592l72.63 72.975v-82.455h-72.63v9.48zM64.24 568.142v5.921c0 7.451 0.749 14.726 2.145 21.773h25.418l-27.563-27.693zM34.247 216.733v49.184h42.638v-42.839c0-0.006 0-0.013 0-0.021s0-0.013 0-0.021v-6.302h-42.638zM243.971 150.201c-40.166 0-72.844 32.674-72.853 72.84 0 0.004 0 0.009 0 0.013s0 0.009 0 0.013c0.009 40.166 32.687 72.84 72.853 72.84 40.172 0 72.855-32.683 72.855-72.853s-32.681-72.853-72.855-72.853zM753.845 150.201c-40.172 0-72.853 32.683-72.853 72.855s32.683 72.853 72.853 72.853 72.853-32.683 72.853-72.853c0-40.172-32.683-72.855-72.853-72.855zM859.559 240.18c-8.224 50.941-52.489 89.977-105.716 89.977s-97.492-39.036-105.716-89.977h-298.439c-8.224 50.941-52.489 89.977-105.716 89.977s-97.492-39.036-105.716-89.977h-27.124v42.861c0 9.457-7.667 17.124-17.124 17.124h-29.77v115.716h754.489c9.457 0 17.124 7.667 17.124 17.124s-7.667 17.124-17.124 17.124h-754.489v25.737h89.754c9.457 0 17.124 7.667 17.124 17.124v119.971c0 9.457-7.667 17.124-17.124 17.124h-74.636c19.373 33.289 55.421 55.729 96.631 55.729h640.287c40.703 0 77.125-21.865 96.704-55.729h-20.275c-0.002 0-0.004 0-0.006 0h-78.87c-9.457 0-17.124-7.667-17.124-17.124v-119.971c0-9.457 7.667-17.124 17.124-17.124h143.529c1.147-5.769 2.025-10.856 2.53-14.962 0.387-3.138 0.736-6.751 1.051-10.775h-36.257c-9.457 0-17.124-7.667-17.124-17.124s7.667-17.124 17.124-17.124h37.856c0.749-29.464 0.608-68.722-0.443-115.716h-58.289c-9.457 0-17.124-7.667-17.124-17.124v-42.861h-27.124zM989.753 216.733h-68.822v6.282c0 0.015 0.002 0.028 0.002 0.041s-0.002 0.028-0.002 0.041v42.82h68.822v-49.184zM333.949 630.083h-119.969c-9.457 0-17.124-7.667-17.124-17.124v-79.542c-0.135-1.241-0.135-2.494 0-3.735v-36.694c0-9.457 7.667-17.124 17.124-17.124h119.969c9.457 0 17.124 7.667 17.124 17.124v119.971c0 9.457-7.665 17.124-17.124 17.124zM253.939 595.836l-22.835-22.835v22.835h22.835zM316.826 510.112h-85.721v14.455l71.267 71.267h14.455v-85.721zM543.897 630.083h-149.961c-9.457 0-17.124-7.667-17.124-17.124v-93.252c0-0.006 0-0.011 0-0.017v-26.702c0-9.457 7.667-17.124 17.124-17.124h149.961c9.457 0 17.124 7.667 17.124 17.124v119.971c0 9.457-7.667 17.124-17.124 17.124zM445.8 595.836l-34.74-34.765v34.765h34.74zM526.774 510.112h-115.714v2.504l83.155 83.219h32.559v-85.724zM753.845 630.083h-149.963c-9.457 0-17.124-7.667-17.124-17.124v-93.235c0-0.004 0-0.006 0-0.011v-26.726c0-9.457 7.667-17.124 17.124-17.124h149.963c9.457 0 17.124 7.667 17.124 17.124v119.971c0 9.457-7.669 17.124-17.124 17.124zM655.897 595.836l-34.892-34.836v34.836h34.892zM736.721 510.112h-115.716v2.494l83.365 83.23h32.351v-85.724zM285.055 223.056c0-22.689-18.393-41.084-41.084-41.084-22.689 0-41.084 18.393-41.084 41.084s18.393 41.084 41.084 41.084c22.691 0 41.084-18.395 41.084-41.084zM794.927 223.056c0-22.689-18.393-41.084-41.084-41.084s-41.084 18.393-41.084 41.084 18.393 41.084 41.084 41.084 41.084-18.395 41.084-41.084z" />
<glyph unicode="&#xe921;" d="M400.823 172.983c-102.4 0-172.617 32.183-222.354 102.4-40.96 61.44-137.509 207.726-137.509 207.726-8.777 11.703-11.703 26.331-8.777 35.109 2.926 14.629 8.777 20.48 14.629 23.406 8.777 5.851 11.703 5.851 23.406 5.851 14.629 0 29.257-8.777 40.96-23.406l78.994-108.251v400.823c0 17.554 11.703 35.109 35.109 35.109 20.48 0 35.109-11.703 35.109-35.109v-219.429c0-14.629 11.703-23.406 23.406-23.406s23.406 14.629 23.406 23.406v277.943c0 17.554 11.703 35.109 35.109 35.109 20.48 0 35.109-11.703 35.109-35.109v-277.943c0-14.629 11.703-23.406 23.406-23.406s23.406 14.629 23.406 23.406v248.686c0 17.554 11.703 35.109 35.109 35.109 20.48 0 35.109-11.703 35.109-35.109v-277.943c0-14.629 11.703-23.406 23.406-23.406 14.629 0 23.406 11.703 23.406 23.406v190.171c0 17.554 11.703 35.109 35.109 35.109 20.48 0 35.109-11.703 35.109-35.109v-394.971c-8.777-125.806-78.994-190.171-210.651-190.171z" />
<glyph unicode="&#xe922;" d="M342.309 907.337c20.48 0 29.257-11.703 29.257-29.257v-277.943c0-14.629 14.629-29.257 29.257-29.257 11.703 0 29.257 14.629 29.257 29.257v248.686c0 14.629 11.703 29.257 29.257 29.257 20.48 0 29.257-11.703 29.257-29.257v-277.943c0-14.629 14.629-29.257 29.257-29.257s29.257 14.629 29.257 29.257v190.171c0 14.629 11.703 29.257 29.257 29.257 20.48 0 29.257-11.703 29.257-29.257v-397.897c-8.777-122.88-78.994-187.246-207.726-187.246-99.474 0-169.691 32.183-219.429 102.4-40.96 61.44-137.509 207.726-137.509 207.726-8.777 8.777-8.777 26.331-8.777 32.183 2.926 11.703 5.851 17.554 11.703 20.48v0 0c5.851 5.851 8.777 5.851 20.48 5.851 14.629 0 26.331-5.851 38.034-20.48l73.143-99.474 14.629-17.554v412.526c0 14.629 11.703 29.257 29.257 29.257 20.48 0 29.257-11.703 29.257-29.257v-219.429c0-14.629 14.629-29.257 29.257-29.257 11.703 0 29.257 14.629 29.257 29.257v277.943c5.851 14.629 14.629 29.257 35.109 29.257zM342.309 916.114c-23.406 0-38.034-17.554-38.034-38.034v-277.943c0-8.777-11.703-20.48-20.48-20.48s-20.48 8.777-20.48 20.48v219.429c0 23.406-14.629 38.034-38.034 38.034s-38.034-17.554-38.034-38.034v-389.12l-73.143 99.474c-11.703 14.629-26.331 23.406-43.886 23.406-11.703 0-14.629 0-23.406-5.851-8.777-2.926-14.629-11.703-17.554-26.331-2.926-8.777 0-26.331 8.777-38.034 0 0 96.549-146.286 137.509-207.726 49.737-70.217 119.954-105.326 225.28-105.326 90.697 0 201.874 32.183 213.577 193.097v397.897c0 23.406-14.629 38.034-38.034 38.034s-38.034-17.554-38.034-38.034v-190.171c0-8.777-8.777-20.48-20.48-20.48-8.777 0-20.48 8.777-20.48 20.48v277.943c0 23.406-14.629 38.034-38.034 38.034s-38.034-17.554-38.034-38.034v-248.686c0-8.777-11.703-20.48-20.48-20.48s-20.48 8.777-20.48 20.48v277.943c0 23.406-14.629 38.034-38.034 38.034v0z" />
<glyph unicode="&#xe923;" d="M895.269 234.423l84.846-55.589-84.846-58.514z" />
<glyph unicode="&#xe924;" d="M901.12 228.571l73.143-49.737-73.143-49.737v99.474zM892.343 243.2v-128.731l93.623 64.366-93.623 64.366z" />
<glyph unicode="&#xe925;" d="M608.549 178.834l84.846 55.589v-114.103z" />
<glyph unicode="&#xe926;" d="M690.469 228.571v-99.474l-73.143 49.737 73.143 49.737zM696.32 243.2l-93.623-64.366 93.623-64.366v128.731z" />
<glyph unicode="&#xe927;" d="M740.206 73.509h114.103l-61.44-78.994z" />
<glyph unicode="&#xe928;" d="M845.531 70.583l-52.663-70.217-46.811 70.217h99.474zM860.16 79.36h-128.731l61.44-90.697 67.291 90.697z" />
<glyph unicode="&#xe929;" d="M740.206 281.234l52.663 78.994 61.44-78.994z" />
<glyph unicode="&#xe92a;" d="M792.869 354.377l52.663-70.217h-99.474l46.811 70.217zM792.869 369.006l-61.44-90.697h128.731l-67.291 90.697z" />
</font>
</defs>
</svg>
